<?xml version="1.0" encoding="utf-8"?>
<!-- Generator: Adobe Illustrator 22.0.0, SVG Export Plug-In . SVG Version: 6.00 Build 0)  -->
<svg version="1.1" id="图层_1" xmlns="http://www.w3.org/2000/svg" xmlns:xlink="http://www.w3.org/1999/xlink" x="0px" y="0px"
	 viewBox="0 0 63.4 50.3" style="enable-background:new 0 0 63.4 50.3;" xml:space="preserve">
<style type="text/css">
	.st0{fill:#62B4B2;}
	.st1{fill:#FFFFFF;}
	.st2{fill:#040000;}
</style>
<g>
	<path class="st0" d="M13.1,13c-0.1,0.2,33.7-0.4,33.7-0.4L47.1,9c0,0-3.4-7.7-8-8.6S19,0.4,19,0.4s-5.8,3.3-6.9,7.8L13.1,13z"/>
	<path class="st0" d="M51.4,50.3H12c-6.6,0-12-5.4-12-12V19.8c0-6.6,5.4-12,12-12h39.4c6.6,0,12,5.4,12,12v18.5
		C63.4,44.9,58,50.3,51.4,50.3z"/>
	<circle class="st1" cx="28.2" cy="27.8" r="14.8"/>
	<path class="st2" d="M17.7,32.6h2c0,0-2.9-6.1,0.9-10.1s8.3-3.7,8.3-3.7v-2.6c0,0-7.2-0.6-9.8,4.3c0,0-1,0.8-1.8,3s0,9.1,0,9.1
		H17.7z"/>
</g>
</svg>
