<?xml version="1.0" encoding="utf-8"?>
<!-- Generator: Adobe Illustrator 22.0.0, SVG Export Plug-In . SVG Version: 6.00 Build 0)  -->
<svg version="1.1" id="图层_1" xmlns="http://www.w3.org/2000/svg" xmlns:xlink="http://www.w3.org/1999/xlink" x="0px" y="0px"
	 viewBox="0 0 65.1 62.5" style="enable-background:new 0 0 65.1 62.5;" xml:space="preserve">
<style type="text/css">
	.st0{fill:#FFFFFF;stroke:#000000;stroke-miterlimit:10;}
	.st1{fill:#2C2A25;}
</style>
<g>
	<path class="st0" d="M52.6,37.7h-31c-6.6,0-12-5.4-12-12V12.5c0-6.6,5.4-12,12-12h31c6.6,0,12,5.4,12,12v13.2
		C64.6,32.3,59.2,37.7,52.6,37.7z"/>
	<path class="st1" d="M43,62.5H12c-6.6,0-12-5.4-12-12V37.3c0-6.6,5.4-12,12-12h31c6.6,0,12,5.4,12,12v13.2
		C55,57.1,49.6,62.5,43,62.5z"/>
	<path class="st0" d="M9.6,52.1c9.1,0.2,11.9,0,11.9,0v2.8H9.6V52.1z"/>
	<rect x="25.1" y="52.1" class="st0" width="16.4" height="2.8"/>
	<rect x="34" y="30.1" class="st0" width="12.8" height="8.5"/>
	<rect x="11.4" y="9.6" class="st1" width="49.9" height="8.7"/>
</g>
</svg>
