<?xml version="1.0" encoding="utf-8"?>
<!-- Generator: Adobe Illustrator 22.0.0, SVG Export Plug-In . SVG Version: 6.00 Build 0)  -->
<svg version="1.1" id="图层_1" xmlns="http://www.w3.org/2000/svg" xmlns:xlink="http://www.w3.org/1999/xlink" x="0px" y="0px"
	 viewBox="0 0 63 62.4" style="enable-background:new 0 0 63 62.4;" xml:space="preserve">
<style type="text/css">
	.st0{fill:#CF8F48;}
	.st1{fill:#FFFFFF;}
</style>
<g>
	<circle class="st0" cx="33" cy="36.1" r="19.5"/>
	<path class="st1" d="M19.6,37h2.3c0,0-0.3-6.2,2.6-8.3c0,0,2.8-3.6,6-3.8s3.3-0.3,3.3-0.3v-3.1c0,0-6.7-0.5-10.3,3.6
		s-3.9,5.9-3.9,5.9L19,33.9V37H19.6z"/>
	<path class="st1" d="M40.2,27.1c0,0-0.6-3.1,1.9-2.4c0,0,3.8,3,4.8,6.3s0.4,8.9,0.4,8.9s-1.5,4.9-4.9,7.2s-4.9,3.2-4.9,3.2h-7.9
		c0,0-6.2-3.3-6.8-5.2s1.6-2.4,1.6-2.4l5,3.8c0,0,2.1,1.9,5.3,0.6s7.3-4.6,7.3-4.6s2.8-4,2.3-7.7s-4.4-7.3-4.4-7.3L40.2,27.1z"/>
	<path class="st0" d="M0.4,2.1L0,15.4c0,0,1.5,4.6,4.3,4.7s2.6,0,2.6,0L6.5,34.9c0,0-2.6,11-2.6,13.9s-1.3,6.8,0.6,10.5
		s3.3,2.5,3.3,2.5s2.6-0.6,3.8-3.6s0-13.1,0-13.1s-1.4-7.7-2.2-9.9S8.8,20.1,8.8,20.1s5.9-1.3,6.1-3.4s0-14.5,0-14.5h-2.5l0.2,13.1
		c0,0-0.4,2.8-3.6,2.6L9.2,1.8H6.3v15.6c0,0-2.4,0.9-2.9-1.6s-0.2-14-0.2-14H0.4V2.1z"/>
	<path class="st0" d="M57.6,35.1c0,0-3.4-4.9-3.3-8.3s-0.8-12.4,0.6-17.3S62.6,0,62.6,0v35.5h-1.8l0.1-31.9c0,0-3.8,3.2-4.1,9.2
		s0.1,15.4,0.1,15.4s2.2,5.8,2.3,5.9l1.1,1.4h-2.4L57.6,35.1z"/>
	<path class="st0" d="M57.2,34.6H63l-0.4,27.8c0,0-8.8,0.3-8.7-7.1s-0.3-0.1-0.3-0.1L55.3,37C55.3,37,56.2,34.6,57.2,34.6z"/>
</g>
</svg>
