<?xml version="1.0" encoding="utf-8"?>
<!-- Generator: Adobe Illustrator 22.0.0, SVG Export Plug-In . SVG Version: 6.00 Build 0)  -->
<svg version="1.1" id="图层_1" xmlns="http://www.w3.org/2000/svg" xmlns:xlink="http://www.w3.org/1999/xlink" x="0px" y="0px"
	 viewBox="0 0 60 62.6" style="enable-background:new 0 0 60 62.6;" xml:space="preserve">
<style type="text/css">
	.st0{fill:#62B4B2;}
	.st1{fill:#F4F4F4;}
	.st2{fill:#040000;}
</style>
<g>
	<path class="st0" d="M12.7,13.5c0,0,0.3-9.4,10.9-12.7S42.4,5,42.4,5s3.9,3.5,4.4,8.5S45.2,25,45.2,25L30.6,48.6L25,42.4l-8.3-12.7
		c0,0-2.9-4.9-4-8.9S12.7,13.5,12.7,13.5z"/>
	<circle class="st1" cx="29.5" cy="16.6" r="6.6"/>
	<polygon class="st2" points="7.2,33.2 12.8,31.1 13.3,33.2 8.8,35.2 3,58.2 14.4,52.5 29.5,59.4 44.3,52.3 56.5,58.2 51.2,35.5 
		46,32.5 46.9,30.4 53.2,32.9 60,61.6 59,62.6 45.2,55.2 31,62.6 15,55.7 1.4,62.6 0,62.1 	"/>
</g>
</svg>
