<?xml version="1.0" encoding="utf-8"?>
<!-- Generator: Adobe Illustrator 22.0.0, SVG Export Plug-In . SVG Version: 6.00 Build 0)  -->
<svg version="1.1" id="图层_1" xmlns="http://www.w3.org/2000/svg" xmlns:xlink="http://www.w3.org/1999/xlink" x="0px" y="0px"
	 viewBox="0 0 60.7 60.5" style="enable-background:new 0 0 60.7 60.5;" xml:space="preserve">
<style type="text/css">
	.st0{fill:#CF8F48;}
	.st1{fill:#FAFAFA;}
	.st2{fill:#FFFFFF;}
</style>
<g>
	<path class="st0" d="M4.9,24.4c0,0,4.4-13.5,7.8-14.3s36.6,0,36.6,0s7.6,11.3,7.5,14.6c0,0,3.3,0.6,3.7,4.1S60.3,49,60.3,49
		l-1.9,1.2v8.5c0,0-0.4,1.1-2,1.6s-8.8,0-8.8,0s-1.4,0.2-1.8-1.8s-0.4-6.3-0.4-6.3L15.5,52l-0.4,6.6c0,0-0.1,1.3-3.3,1.5
		s-6.9,0.1-6.9,0.1S2.8,59.8,2.3,57v-7c0,0-1.8-0.3-1.8-3.3S0,29.2,0,29.2S3.3,24,4.9,24.4z"/>
	<circle class="st1" cx="10.4" cy="36.1" r="4.2"/>
	<circle class="st1" cx="50.8" cy="36.7" r="4.2"/>
	<path class="st2" d="M20.3,33.5h19.4c0,0,1.6,1.1,1.9,2.6s-3.2,7.4-3.2,7.4l-1.4,0.9H24.4c0,0-5-2.1-5.1-6.3S20.3,33.5,20.3,33.5z"
		/>
	<polygon class="st0" points="37.2,6.8 39.8,6.8 37.2,0 24,0 21.1,6.8 23.9,6.8 25.9,2.3 35.3,2.1 	"/>
</g>
</svg>
