<?xml version="1.0" encoding="utf-8"?>
<!-- Generator: Adobe Illustrator 22.0.0, SVG Export Plug-In . SVG Version: 6.00 Build 0)  -->
<svg version="1.1" id="图层_1" xmlns="http://www.w3.org/2000/svg" xmlns:xlink="http://www.w3.org/1999/xlink" x="0px" y="0px"
	 viewBox="0 0 46.5 62.3" style="enable-background:new 0 0 46.5 62.3;" xml:space="preserve">
<style type="text/css">
	.st0{fill:#5FADAB;}
	.st1{fill:#FFFFFF;}
	.st2{fill:#4E9E9A;}
</style>
<g>
	<path class="st0" d="M0.5,9.3c0,0,2.4-5.9,6.4-6.2s7.6-0.5,7.6-0.5s1.4-2.6,4.4-2.6s11.1,0,11.1,0s1.6,1.1,2.4,2.1
		c0.9,1,5.9,0.3,7.6,0.9s4.8,3.4,4.8,3.4s1.5,1.3,1.6,2.9s0,38,0,38s-0.6,6.1-10.9,7.2s-23.8,0.3-23.8,0.3s-11.1-0.1-11.6-8
		S0.5,9.3,0.5,9.3z"/>
	<path class="st1" d="M8,14.3c0,0,3.5-1.7,6.1-1.8s15.6,0,15.6,0s8.3,0.5,8.6,0.9S38,22.4,38,22.4s-4.1,8.2-4.8,8.3
		s-19.6-0.3-19.6-0.3S9,23.6,8.8,21.6L8,14.3z"/>
	<circle class="st1" cx="12.1" cy="40.7" r="4.1"/>
	<circle class="st1" cx="35.1" cy="39.9" r="4.1"/>
	<path class="st2" d="M7.1,61.5c0,0,3.8-5.1,4.2-5.1s1.7-0.1,1.6,0.4s-4.3,5.6-4.3,5.6H8L7.1,61.5z"/>
	<path class="st2" d="M33.5,58l5.2,4.3h0.9c0,0,0.8-1.2,0.4-1.8s-4.9-4.2-4.9-4.2S33.5,56,33.5,57S33.5,58,33.5,58z"/>
</g>
</svg>
