<?xml version="1.0" encoding="utf-8"?>
<!-- Generator: Adobe Illustrator 22.0.0, SVG Export Plug-In . SVG Version: 6.00 Build 0)  -->
<svg version="1.1" id="图层_1" xmlns="http://www.w3.org/2000/svg" xmlns:xlink="http://www.w3.org/1999/xlink" x="0px" y="0px"
	 viewBox="0 0 61.9 58.1" style="enable-background:new 0 0 61.9 58.1;" xml:space="preserve">
<style type="text/css">
	.st0{fill:#62B4B2;}
	.st1{fill:#F8FAFA;}
	.st2{fill:#040000;}
</style>
<g>
	<path class="st0" d="M15.9,44.1L45.6,4.2c0,0,10.5-6,13.8-3.7s1.6,6.1,1.6,6.1L49.1,24.3l12.9,23l-3.6,5.3L39.7,40l-1.6,0.3
		l-6.9,7.4L23.4,54l-6.6,4.1l-6.3-0.5l-0.4-2.4L0,51.2c0,0-0.3-4.9,3.1-5.6S15.9,44.1,15.9,44.1z"/>
	<path class="st1" d="M50.2,8.7c0,0,2.8-3.8,3.9-4.3s2.6,0,2.6,0s0.8,0.5,0,2s-4.3,4.5-4.3,4.5s-2.9,0.1-2.6-1.1S50.2,8.7,50.2,8.7z
		"/>
	<polygon class="st2" points="2.6,22.6 4.9,19.3 31.9,18.3 31.2,20.5 6.6,21.5 5.3,24 23,29.5 23.1,31.5 20,31.5 1.9,26.2 1.9,24.2 
			"/>
</g>
</svg>
