<?xml version="1.0" encoding="utf-8"?>
<!-- Generator: Adobe Illustrator 22.0.0, SVG Export Plug-In . SVG Version: 6.00 Build 0)  -->
<svg version="1.1" id="图层_1" xmlns="http://www.w3.org/2000/svg" xmlns:xlink="http://www.w3.org/1999/xlink" x="0px" y="0px"
	 viewBox="0 0 63.2 59.3" style="enable-background:new 0 0 63.2 59.3;" xml:space="preserve">
<style type="text/css">
	.st0{fill:#245B6F;}
	.st1{fill:#F8FAFA;}
</style>
<g>
	<path class="st0" d="M29.3,43.8h-5.3v-1.3H10.3c0,0-11.8-3-10.2-11.8s6-10.5,6-10.5s2.9-1.3,3.3-0.9c0,0-1.3-4.3,2-6.8
		s4.8-2.9,4.8-2.9s5.3-0.5,6.7,0c0,0,3-9.8,10.5-9.6S45,2.5,45,2.5s7.7,5.7,5.9,10.7c0,0,7.9,1.5,10.4,8c0,0,4,5.8,0.4,12.1
		c-3.6,6.3-9.6,9.7-9.6,9.7H37.6l-9.9,16.3L29.3,43.8z"/>
	<polygon class="st1" points="31.6,27.4 38.1,27.4 32,40.2 36.4,40.2 29.5,51.2 31.6,42.3 26.6,41.8 	"/>
</g>
</svg>
