<?xml version="1.0" encoding="utf-8"?>
<!-- Generator: Adobe Illustrator 22.0.0, SVG Export Plug-In . SVG Version: 6.00 Build 0)  -->
<svg version="1.1" id="图层_1" xmlns="http://www.w3.org/2000/svg" xmlns:xlink="http://www.w3.org/1999/xlink" x="0px" y="0px"
	 viewBox="0 0 63.9 61.5" style="enable-background:new 0 0 63.9 61.5;" xml:space="preserve">
<style type="text/css">
	.st0{fill:#404041;}
	.st1{fill:#FFFFFF;}
	.st2{fill:#434244;}
</style>
<g>
	<polygon class="st0" points="20.4,10 22.8,10 26.3,2.8 37.6,2.8 40.9,10 43.3,10 38.5,0 25,0 	"/>
	<path class="st0" d="M51.9,55.2H12c-6.6,0-12-5.4-12-12V20.6c0-6.6,5.4-12,12-12h39.9c6.6,0,12,5.4,12,12v22.6
		C63.9,49.8,58.5,55.2,51.9,55.2z"/>
	<rect x="3.8" y="22" class="st1" width="57.5" height="3"/>
	<rect x="15.6" y="26.8" class="st1" width="2.9" height="25.8"/>
	<rect x="45.8" y="26.8" class="st1" width="2.9" height="25.8"/>
	<rect x="9" y="60" class="st2" width="9.5" height="1.5"/>
	<rect x="45.8" y="60" class="st2" width="9.5" height="1.5"/>
</g>
</svg>
